<mxfile host="app.diagrams.net" agent="Mozilla/5.0 (Windows NT 10.0; Win64; x64) AppleWebKit/537.36 (KHTML, like Gecko) Chrome/140.0.0.0 Safari/537.36" version="28.2.5">
  <diagram name="第 1 页" id="AFdaKlkPSiJl560lNlhG">
    <mxGraphModel dx="786" dy="497" grid="1" gridSize="10" guides="1" tooltips="1" connect="1" arrows="1" fold="1" page="1" pageScale="1" pageWidth="827" pageHeight="1169" math="0" shadow="0" adaptiveColors="simple">
      <root>
        <mxCell id="0" />
        <mxCell id="1" parent="0" />
        <mxCell id="sWET4LjBOBrk1tHGZg4t-3" value="" style="edgeStyle=orthogonalEdgeStyle;rounded=0;orthogonalLoop=1;jettySize=auto;html=1;" edge="1" parent="1" source="sWET4LjBOBrk1tHGZg4t-1" target="sWET4LjBOBrk1tHGZg4t-2">
          <mxGeometry relative="1" as="geometry" />
        </mxCell>
        <mxCell id="sWET4LjBOBrk1tHGZg4t-1" value="能力" style="rounded=1;whiteSpace=wrap;html=1;" vertex="1" parent="1">
          <mxGeometry x="200" y="80" width="120" height="60" as="geometry" />
        </mxCell>
        <mxCell id="sWET4LjBOBrk1tHGZg4t-5" value="" style="edgeStyle=orthogonalEdgeStyle;rounded=0;orthogonalLoop=1;jettySize=auto;html=1;" edge="1" parent="1" source="sWET4LjBOBrk1tHGZg4t-2" target="sWET4LjBOBrk1tHGZg4t-4">
          <mxGeometry relative="1" as="geometry" />
        </mxCell>
        <mxCell id="sWET4LjBOBrk1tHGZg4t-2" value="行动" style="whiteSpace=wrap;html=1;rounded=1;" vertex="1" parent="1">
          <mxGeometry x="400" y="80" width="120" height="60" as="geometry" />
        </mxCell>
        <mxCell id="sWET4LjBOBrk1tHGZg4t-7" value="" style="edgeStyle=orthogonalEdgeStyle;rounded=0;orthogonalLoop=1;jettySize=auto;html=1;" edge="1" parent="1" source="sWET4LjBOBrk1tHGZg4t-4" target="sWET4LjBOBrk1tHGZg4t-6">
          <mxGeometry relative="1" as="geometry" />
        </mxCell>
        <mxCell id="sWET4LjBOBrk1tHGZg4t-4" value="正反馈" style="whiteSpace=wrap;html=1;rounded=1;" vertex="1" parent="1">
          <mxGeometry x="400" y="270" width="120" height="60" as="geometry" />
        </mxCell>
        <mxCell id="sWET4LjBOBrk1tHGZg4t-9" value="" style="edgeStyle=orthogonalEdgeStyle;rounded=0;orthogonalLoop=1;jettySize=auto;html=1;entryX=0;entryY=0.5;entryDx=0;entryDy=0;" edge="1" parent="1" source="sWET4LjBOBrk1tHGZg4t-6" target="sWET4LjBOBrk1tHGZg4t-8">
          <mxGeometry relative="1" as="geometry" />
        </mxCell>
        <mxCell id="sWET4LjBOBrk1tHGZg4t-6" value="意愿" style="whiteSpace=wrap;html=1;rounded=1;" vertex="1" parent="1">
          <mxGeometry x="200" y="270" width="120" height="60" as="geometry" />
        </mxCell>
        <mxCell id="sWET4LjBOBrk1tHGZg4t-8" value="意义" style="whiteSpace=wrap;html=1;rounded=1;" vertex="1" parent="1">
          <mxGeometry x="300" y="170" width="120" height="60" as="geometry" />
        </mxCell>
      </root>
    </mxGraphModel>
  </diagram>
</mxfile>
